<svg xmlns="http://www.w3.org/2000/svg" xmlns:xlink="http://www.w3.org/1999/xlink" width="1920" zoomAndPan="magnify" viewBox="0 0 1440 809.999993" height="1080" preserveAspectRatio="xMidYMid meet" version="1.0"><defs><g/><clipPath id="acc62ff60a"><path d="M 845.777344 289.804688 L 971.027344 289.804688 L 971.027344 520.054688 L 845.777344 520.054688 Z M 845.777344 289.804688 " clip-rule="nonzero"/></clipPath><clipPath id="4453ccd3bb"><path d="M 468.589844 289.800781 L 875.386719 289.800781 L 875.386719 520.199219 L 468.589844 520.199219 Z M 468.589844 289.800781 " clip-rule="nonzero"/></clipPath><clipPath id="a7ef9564bc"><path d="M 491.089844 289.800781 L 852.589844 289.800781 C 865.015625 289.800781 875.089844 299.875 875.089844 312.300781 L 875.089844 497.699219 C 875.089844 510.125 865.015625 520.199219 852.589844 520.199219 L 491.089844 520.199219 C 478.660156 520.199219 468.589844 510.125 468.589844 497.699219 L 468.589844 312.300781 C 468.589844 299.875 478.660156 289.800781 491.089844 289.800781 Z M 491.089844 289.800781 " clip-rule="nonzero"/></clipPath><clipPath id="1c9522303c"><path d="M 479.464844 300.675781 L 800.589844 300.675781 L 800.589844 509.324219 L 479.464844 509.324219 Z M 479.464844 300.675781 " clip-rule="nonzero"/></clipPath><clipPath id="1dbe2bf064"><path d="M 501.964844 300.675781 L 777.964844 300.675781 C 790.390625 300.675781 800.464844 310.75 800.464844 323.175781 L 800.464844 486.824219 C 800.464844 499.25 790.390625 509.324219 777.964844 509.324219 L 501.964844 509.324219 C 489.535156 509.324219 479.464844 499.25 479.464844 486.824219 L 479.464844 323.175781 C 479.464844 310.75 489.535156 300.675781 501.964844 300.675781 Z M 501.964844 300.675781 " clip-rule="nonzero"/></clipPath><clipPath id="a197418b58"><path d="M 920 380 L 937.101562 380 L 937.101562 403 L 920 403 Z M 920 380 " clip-rule="nonzero"/></clipPath><clipPath id="717ffa5f51"><path d="M 816 347 L 929 347 L 929 455.988281 L 816 455.988281 Z M 816 347 " clip-rule="nonzero"/></clipPath></defs><g clip-path="url(#acc62ff60a)"><path fill="#011f3f" d="M 971.027344 405 C 971.027344 341.429688 919.496094 289.898438 855.925781 289.898438 C 850.148438 289.898438 845.460938 294.582031 845.460938 300.359375 L 845.460938 509.636719 C 845.460938 515.417969 850.148438 520.101562 855.925781 520.101562 C 919.496094 520.101562 971.027344 468.566406 971.027344 405 Z M 971.027344 405 " fill-opacity="1" fill-rule="evenodd"/></g><g clip-path="url(#4453ccd3bb)"><g clip-path="url(#a7ef9564bc)"><path fill="#011f3f" d="M 468.589844 289.800781 L 875.386719 289.800781 L 875.386719 520.199219 L 468.589844 520.199219 Z M 468.589844 289.800781 " fill-opacity="1" fill-rule="nonzero"/></g></g><g clip-path="url(#1c9522303c)"><g clip-path="url(#1dbe2bf064)"><path fill="#ffe8f0" d="M 479.464844 300.675781 L 800.589844 300.675781 L 800.589844 509.324219 L 479.464844 509.324219 Z M 479.464844 300.675781 " fill-opacity="1" fill-rule="nonzero"/></g></g><path fill="#f8c379" d="M 860.59375 391.351562 L 865.578125 375.820312 C 866.003906 374.496094 866.273438 373.167969 866.382812 371.820312 L 866.636719 371.820312 C 866.78125 373.421875 867.042969 374.792969 867.402344 375.949219 L 872.328125 391.351562 Z M 875.097656 369.835938 C 872.449219 367.125 869.203125 364.992188 865.574219 363.644531 L 860.65625 363.644531 L 843.976562 409.476562 L 855.160156 409.476562 L 858.386719 399.277344 L 874.6875 399.277344 L 876.472656 404.855469 C 879.792969 400.894531 881.960938 395.9375 882.453125 390.503906 L 875.097656 369.835938 " fill-opacity="1" fill-rule="nonzero"/><path fill="#f8c379" d="M 905.265625 392.871094 L 905.265625 398.578125 L 907.90625 398.578125 C 909.039062 398.578125 909.917969 398.316406 910.558594 397.792969 C 911.199219 397.269531 911.515625 396.554688 911.515625 395.648438 C 911.515625 394.78125 911.207031 394.101562 910.570312 393.609375 C 909.945312 393.117188 909.066406 392.871094 907.9375 392.871094 Z M 905.265625 384.109375 L 905.265625 389.246094 L 907.414062 389.246094 C 908.417969 389.246094 909.207031 389 909.789062 388.511719 C 910.367188 388.023438 910.660156 387.351562 910.660156 386.496094 C 910.660156 384.90625 909.472656 384.109375 907.09375 384.109375 Z M 900.386719 402.175781 L 900.386719 380.515625 L 908.269531 380.515625 C 910.6875 380.515625 912.550781 380.957031 913.84375 381.84375 C 915.140625 382.730469 915.796875 383.976562 915.796875 385.589844 C 915.796875 386.757812 915.398438 387.78125 914.605469 388.65625 C 913.816406 389.53125 912.804688 390.140625 911.578125 390.484375 L 911.578125 390.542969 C 913.121094 390.734375 914.351562 391.304688 915.269531 392.25 C 916.195312 393.195312 916.652344 394.347656 916.652344 395.707031 C 916.652344 397.691406 915.945312 399.265625 914.527344 400.429688 C 913.101562 401.589844 911.164062 402.175781 908.707031 402.175781 L 900.386719 402.175781 " fill-opacity="1" fill-rule="nonzero"/><g clip-path="url(#a197418b58)"><path fill="#f8c379" d="M 937.042969 401.402344 C 935.464844 402.167969 933.398438 402.550781 930.847656 402.550781 C 927.527344 402.550781 924.914062 401.574219 923.011719 399.621094 C 921.105469 397.667969 920.15625 395.066406 920.15625 391.8125 C 920.15625 388.347656 921.230469 385.539062 923.367188 383.386719 C 925.507812 381.230469 928.28125 380.152344 931.695312 380.152344 C 933.808594 380.152344 935.589844 380.421875 937.042969 380.953125 L 937.042969 385.652344 C 935.589844 384.785156 933.9375 384.351562 932.089844 384.351562 C 930.058594 384.351562 928.410156 384.992188 927.160156 386.269531 C 925.914062 387.546875 925.292969 389.28125 925.292969 391.464844 C 925.292969 393.558594 925.878906 395.226562 927.058594 396.472656 C 928.234375 397.714844 929.820312 398.335938 931.820312 398.335938 C 933.722656 398.335938 935.464844 397.875 937.042969 396.949219 L 937.042969 401.402344 " fill-opacity="1" fill-rule="nonzero"/></g><g clip-path="url(#717ffa5f51)"><path fill="#f8c379" d="M 836.238281 409.992188 C 824.148438 398.816406 823.410156 379.953125 834.585938 367.863281 C 845.761719 355.777344 864.625 355.035156 876.710938 366.210938 C 888.796875 377.386719 889.539062 396.246094 878.363281 408.335938 C 867.191406 420.425781 848.332031 421.167969 836.238281 409.992188 Z M 928.382812 443.796875 C 928.121094 440.644531 926.601562 437.84375 924.105469 435.914062 L 891.640625 410.78125 C 890.917969 410.21875 890.722656 409.207031 891.179688 408.417969 C 900.542969 392.476562 897.917969 371.632812 883.777344 358.566406 C 867.46875 343.488281 842.023438 344.484375 826.941406 360.800781 C 811.863281 377.109375 812.863281 402.550781 829.171875 417.636719 C 843.21875 430.617188 864.03125 431.675781 879.171875 421.300781 C 879.921875 420.789062 880.941406 420.910156 881.554688 421.585938 L 909.113281 452.203125 C 911.226562 454.542969 914.128906 455.847656 917.273438 455.859375 L 917.339844 455.859375 C 920.464844 455.859375 923.355469 454.597656 925.472656 452.289062 C 927.398438 450.203125 928.421875 447.558594 928.421875 444.757812 C 928.421875 444.441406 928.417969 444.121094 928.382812 443.796875 " fill-opacity="1" fill-rule="nonzero"/></g><g fill="#000000" fill-opacity="1"><g transform="translate(502.276445, 425.671726)"><g><path d="M 15.484375 1.171875 C 13.085938 1.171875 10.644531 0.875 8.15625 0.28125 C 5.675781 -0.300781 3.609375 -1.070312 1.953125 -2.03125 L 2.28125 -10.90625 L 2.9375 -10.90625 L 4.96875 -6.65625 C 5.570312 -5.4375 6.222656 -4.359375 6.921875 -3.421875 C 7.617188 -2.492188 8.578125 -1.765625 9.796875 -1.234375 C 10.671875 -0.804688 11.507812 -0.515625 12.3125 -0.359375 C 13.113281 -0.203125 14.019531 -0.125 15.03125 -0.125 C 17.6875 -0.125 19.785156 -0.84375 21.328125 -2.28125 C 22.878906 -3.71875 23.65625 -5.570312 23.65625 -7.84375 C 23.65625 -9.976562 23.128906 -11.644531 22.078125 -12.84375 C 21.035156 -14.039062 19.359375 -15.203125 17.046875 -16.328125 L 14.375 -17.515625 C 10.625 -19.160156 7.691406 -21.0625 5.578125 -23.21875 C 3.472656 -25.375 2.421875 -28.238281 2.421875 -31.8125 C 2.421875 -34.382812 3.082031 -36.601562 4.40625 -38.46875 C 5.738281 -40.34375 7.585938 -41.78125 9.953125 -42.78125 C 12.328125 -43.789062 15.109375 -44.296875 18.296875 -44.296875 C 20.597656 -44.296875 22.78125 -43.988281 24.84375 -43.375 C 26.914062 -42.769531 28.71875 -41.941406 30.25 -40.890625 L 29.859375 -33.0625 L 29.203125 -33.0625 L 26.515625 -37.953125 C 25.773438 -39.472656 25.035156 -40.550781 24.296875 -41.1875 C 23.554688 -41.820312 22.707031 -42.269531 21.75 -42.53125 C 21.1875 -42.707031 20.664062 -42.828125 20.1875 -42.890625 C 19.707031 -42.953125 19.097656 -42.984375 18.359375 -42.984375 C 16.140625 -42.984375 14.265625 -42.335938 12.734375 -41.046875 C 11.210938 -39.765625 10.453125 -38.035156 10.453125 -35.859375 C 10.453125 -33.640625 11.039062 -31.863281 12.21875 -30.53125 C 13.394531 -29.207031 15.113281 -28.023438 17.375 -26.984375 L 20.375 -25.671875 C 24.5625 -23.847656 27.566406 -21.898438 29.390625 -19.828125 C 31.222656 -17.753906 32.140625 -15.085938 32.140625 -11.828125 C 32.140625 -7.992188 30.691406 -4.867188 27.796875 -2.453125 C 24.898438 -0.0351562 20.796875 1.171875 15.484375 1.171875 Z M 15.484375 1.171875 "/></g></g></g><g fill="#000000" fill-opacity="1"><g transform="translate(536.306517, 425.671726)"><g><path d="M 17.828125 0.984375 C 14.523438 0.984375 11.648438 0.296875 9.203125 -1.078125 C 6.765625 -2.453125 4.878906 -4.398438 3.546875 -6.921875 C 2.222656 -9.453125 1.5625 -12.414062 1.5625 -15.8125 C 1.5625 -19.207031 2.269531 -22.144531 3.6875 -24.625 C 5.101562 -27.113281 7.039062 -29.03125 9.5 -30.375 C 11.96875 -31.726562 14.742188 -32.40625 17.828125 -32.40625 C 20.921875 -32.40625 23.6875 -31.738281 26.125 -30.40625 C 28.570312 -29.082031 30.5 -27.175781 31.90625 -24.6875 C 33.320312 -22.207031 34.03125 -19.25 34.03125 -15.8125 C 34.03125 -12.375 33.363281 -9.398438 32.03125 -6.890625 C 30.707031 -4.390625 28.835938 -2.453125 26.421875 -1.078125 C 24.003906 0.296875 21.140625 0.984375 17.828125 0.984375 Z M 17.828125 -0.328125 C 19.359375 -0.328125 20.578125 -0.757812 21.484375 -1.625 C 22.398438 -2.5 23.066406 -4.046875 23.484375 -6.265625 C 23.898438 -8.492188 24.109375 -11.628906 24.109375 -15.671875 C 24.109375 -19.765625 23.898438 -22.921875 23.484375 -25.140625 C 23.066406 -27.367188 22.398438 -28.914062 21.484375 -29.78125 C 20.578125 -30.65625 19.359375 -31.09375 17.828125 -31.09375 C 16.304688 -31.09375 15.078125 -30.65625 14.140625 -29.78125 C 13.203125 -28.914062 12.523438 -27.367188 12.109375 -25.140625 C 11.703125 -22.921875 11.5 -19.765625 11.5 -15.671875 C 11.5 -11.628906 11.703125 -8.492188 12.109375 -6.265625 C 12.523438 -4.046875 13.203125 -2.5 14.140625 -1.625 C 15.078125 -0.757812 16.304688 -0.328125 17.828125 -0.328125 Z M 17.828125 -0.328125 "/></g></g></g><g fill="#000000" fill-opacity="1"><g transform="translate(571.250948, 425.671726)"><g><path d="M 1.3125 15.03125 L 1.3125 14.375 L 2.09375 14.109375 C 3.695312 13.671875 4.5 12.625 4.5 10.96875 L 4.5 -24.5625 C 4.5 -25.519531 4.335938 -26.238281 4.015625 -26.71875 C 3.691406 -27.195312 3.09375 -27.523438 2.21875 -27.703125 L 1.3125 -27.890625 L 1.3125 -28.546875 L 12.40625 -32.34375 L 13.0625 -31.6875 L 13.65625 -29.65625 C 15.09375 -30.53125 16.691406 -31.207031 18.453125 -31.6875 C 20.210938 -32.164062 22.03125 -32.40625 23.90625 -32.40625 C 27.65625 -32.40625 30.628906 -30.976562 32.828125 -28.125 C 35.023438 -25.269531 36.125 -21.1875 36.125 -15.875 C 36.125 -10.644531 34.914062 -6.523438 32.5 -3.515625 C 30.082031 -0.515625 26.675781 0.984375 22.28125 0.984375 C 18.832031 0.984375 15.9375 0.484375 13.59375 -0.515625 L 13.59375 10.78125 C 13.59375 12.519531 14.375 13.609375 15.9375 14.046875 L 17.1875 14.375 L 17.1875 15.03125 Z M 19.140625 -0.921875 C 21.316406 -0.921875 23.046875 -2.050781 24.328125 -4.3125 C 25.617188 -6.570312 26.265625 -10.335938 26.265625 -15.609375 C 26.265625 -20.878906 25.65625 -24.570312 24.4375 -26.6875 C 23.21875 -28.800781 21.453125 -29.859375 19.140625 -29.859375 C 17.523438 -29.859375 15.738281 -29.332031 13.78125 -28.28125 L 13.78125 -1.953125 C 15.4375 -1.265625 17.222656 -0.921875 19.140625 -0.921875 Z M 19.140625 -0.921875 "/></g></g></g><g fill="#000000" fill-opacity="1"><g transform="translate(608.612124, 425.671726)"><g><path d="M 10.84375 0.984375 C 8.320312 0.984375 6.195312 0.265625 4.46875 -1.171875 C 2.75 -2.609375 1.890625 -4.675781 1.890625 -7.375 C 1.890625 -9.425781 2.9375 -11.3125 5.03125 -13.03125 C 7.125 -14.75 10.410156 -16.046875 14.890625 -16.921875 C 15.585938 -17.046875 16.367188 -17.1875 17.234375 -17.34375 C 18.109375 -17.5 19.023438 -17.660156 19.984375 -17.828125 L 19.984375 -23 C 19.984375 -25.957031 19.625 -28.035156 18.90625 -29.234375 C 18.1875 -30.429688 17.066406 -31.03125 15.546875 -31.03125 C 14.503906 -31.03125 13.675781 -30.691406 13.0625 -30.015625 C 12.457031 -29.335938 12.066406 -28.171875 11.890625 -26.515625 L 11.765625 -25.796875 C 11.671875 -23.929688 11.207031 -22.5625 10.375 -21.6875 C 9.550781 -20.8125 8.53125 -20.375 7.3125 -20.375 C 6.1875 -20.375 5.25 -20.722656 4.5 -21.421875 C 3.757812 -22.117188 3.390625 -23.054688 3.390625 -24.234375 C 3.390625 -26.023438 4.007812 -27.53125 5.25 -28.75 C 6.5 -29.96875 8.144531 -30.878906 10.1875 -31.484375 C 12.238281 -32.097656 14.460938 -32.40625 16.859375 -32.40625 C 20.734375 -32.40625 23.722656 -31.457031 25.828125 -29.5625 C 27.941406 -27.664062 29 -24.582031 29 -20.3125 L 29 -5.875 C 29 -3.914062 29.914062 -2.9375 31.75 -2.9375 L 33.1875 -2.9375 L 33.78125 -2.421875 C 32.945312 -1.367188 32.039062 -0.5625 31.0625 0 C 30.082031 0.5625 28.703125 0.84375 26.921875 0.84375 C 25.003906 0.84375 23.488281 0.398438 22.375 -0.484375 C 21.257812 -1.378906 20.53125 -2.566406 20.1875 -4.046875 C 18.875 -2.648438 17.53125 -1.460938 16.15625 -0.484375 C 14.789062 0.492188 13.019531 0.984375 10.84375 0.984375 Z M 14.828125 -3 C 15.703125 -3 16.519531 -3.207031 17.28125 -3.625 C 18.039062 -4.039062 18.941406 -4.679688 19.984375 -5.546875 L 19.984375 -16.53125 C 19.554688 -16.4375 19.125 -16.347656 18.6875 -16.265625 C 18.25 -16.179688 17.75 -16.09375 17.1875 -16 C 15.175781 -15.476562 13.570312 -14.597656 12.375 -13.359375 C 11.175781 -12.117188 10.578125 -10.453125 10.578125 -8.359375 C 10.578125 -6.578125 10.988281 -5.238281 11.8125 -4.34375 C 12.644531 -3.445312 13.648438 -3 14.828125 -3 Z M 14.828125 -3 "/></g></g></g><g fill="#000000" fill-opacity="1"><g transform="translate(642.446234, 425.671726)"><g/></g></g><g fill="#000000" fill-opacity="1"><g transform="translate(655.117556, 425.671726)"><g><path d="M 18.546875 0.203125 L 4.578125 -38.734375 C 4.265625 -39.609375 3.859375 -40.296875 3.359375 -40.796875 C 2.859375 -41.296875 2.175781 -41.675781 1.3125 -41.9375 L -0.265625 -42.46875 L -0.265625 -43.109375 L 18.546875 -43.109375 L 18.546875 -42.46875 L 16.53125 -41.875 C 15.53125 -41.613281 14.972656 -41.15625 14.859375 -40.5 C 14.753906 -39.851562 14.851562 -39.050781 15.15625 -38.09375 L 24.828125 -9.40625 L 34.5625 -38.15625 C 34.90625 -39.15625 35.066406 -39.976562 35.046875 -40.625 C 35.023438 -41.28125 34.515625 -41.738281 33.515625 -42 L 31.8125 -42.46875 L 31.8125 -43.109375 L 40.953125 -43.109375 L 40.953125 -42.46875 L 39.203125 -41.9375 C 38.367188 -41.71875 37.773438 -41.335938 37.421875 -40.796875 C 37.078125 -40.253906 36.753906 -39.546875 36.453125 -38.671875 L 23.390625 0.203125 Z M 18.546875 0.203125 "/></g></g></g><g fill="#000000" fill-opacity="1"><g transform="translate(694.046163, 425.671726)"><g><path d="M 9.140625 -35.796875 C 7.660156 -35.796875 6.410156 -36.265625 5.390625 -37.203125 C 4.367188 -38.140625 3.859375 -39.328125 3.859375 -40.765625 C 3.859375 -42.242188 4.367188 -43.441406 5.390625 -44.359375 C 6.410156 -45.273438 7.660156 -45.734375 9.140625 -45.734375 C 10.617188 -45.734375 11.859375 -45.273438 12.859375 -44.359375 C 13.867188 -43.441406 14.375 -42.242188 14.375 -40.765625 C 14.375 -39.328125 13.867188 -38.140625 12.859375 -37.203125 C 11.859375 -36.265625 10.617188 -35.796875 9.140625 -35.796875 Z M 1.4375 0 L 1.4375 -0.65625 L 2.359375 -0.921875 C 3.222656 -1.179688 3.816406 -1.570312 4.140625 -2.09375 C 4.472656 -2.613281 4.640625 -3.3125 4.640625 -4.1875 L 4.640625 -24.625 C 4.640625 -25.539062 4.472656 -26.226562 4.140625 -26.6875 C 3.816406 -27.144531 3.222656 -27.460938 2.359375 -27.640625 L 1.4375 -27.828125 L 1.4375 -28.484375 L 13.390625 -32.34375 L 14.046875 -31.6875 L 13.84375 -22.40625 L 13.84375 -4.109375 C 13.84375 -3.242188 14.003906 -2.546875 14.328125 -2.015625 C 14.660156 -1.492188 15.242188 -1.101562 16.078125 -0.84375 L 16.71875 -0.65625 L 16.71875 0 Z M 1.4375 0 "/></g></g></g><g fill="#000000" fill-opacity="1"><g transform="translate(711.746958, 425.671726)"><g><path d="M 15.9375 0.203125 L 4.375 -27.5625 C 3.769531 -29.050781 2.722656 -30.035156 1.234375 -30.515625 L 0.328125 -30.765625 L 0.328125 -31.421875 L 17.25 -31.421875 L 17.25 -30.765625 L 16.078125 -30.515625 C 14.367188 -30.078125 13.84375 -28.941406 14.5 -27.109375 L 21.359375 -8.890625 L 27.765625 -26.984375 C 28.109375 -27.847656 28.191406 -28.5625 28.015625 -29.125 C 27.847656 -29.695312 27.328125 -30.113281 26.453125 -30.375 L 24.828125 -30.765625 L 24.828125 -31.421875 L 34.296875 -31.421875 L 34.296875 -30.765625 L 32.40625 -30.3125 C 31.570312 -30.09375 30.925781 -29.765625 30.46875 -29.328125 C 30.019531 -28.890625 29.640625 -28.238281 29.328125 -27.375 L 19.734375 0.203125 Z M 15.9375 0.203125 "/></g></g></g><g fill="#000000" fill-opacity="1"><g transform="translate(744.862436, 425.671726)"><g><path d="M 10.84375 0.984375 C 8.320312 0.984375 6.195312 0.265625 4.46875 -1.171875 C 2.75 -2.609375 1.890625 -4.675781 1.890625 -7.375 C 1.890625 -9.425781 2.9375 -11.3125 5.03125 -13.03125 C 7.125 -14.75 10.410156 -16.046875 14.890625 -16.921875 C 15.585938 -17.046875 16.367188 -17.1875 17.234375 -17.34375 C 18.109375 -17.5 19.023438 -17.660156 19.984375 -17.828125 L 19.984375 -23 C 19.984375 -25.957031 19.625 -28.035156 18.90625 -29.234375 C 18.1875 -30.429688 17.066406 -31.03125 15.546875 -31.03125 C 14.503906 -31.03125 13.675781 -30.691406 13.0625 -30.015625 C 12.457031 -29.335938 12.066406 -28.171875 11.890625 -26.515625 L 11.765625 -25.796875 C 11.671875 -23.929688 11.207031 -22.5625 10.375 -21.6875 C 9.550781 -20.8125 8.53125 -20.375 7.3125 -20.375 C 6.1875 -20.375 5.25 -20.722656 4.5 -21.421875 C 3.757812 -22.117188 3.390625 -23.054688 3.390625 -24.234375 C 3.390625 -26.023438 4.007812 -27.53125 5.25 -28.75 C 6.5 -29.96875 8.144531 -30.878906 10.1875 -31.484375 C 12.238281 -32.097656 14.460938 -32.40625 16.859375 -32.40625 C 20.734375 -32.40625 23.722656 -31.457031 25.828125 -29.5625 C 27.941406 -27.664062 29 -24.582031 29 -20.3125 L 29 -5.875 C 29 -3.914062 29.914062 -2.9375 31.75 -2.9375 L 33.1875 -2.9375 L 33.78125 -2.421875 C 32.945312 -1.367188 32.039062 -0.5625 31.0625 0 C 30.082031 0.5625 28.703125 0.84375 26.921875 0.84375 C 25.003906 0.84375 23.488281 0.398438 22.375 -0.484375 C 21.257812 -1.378906 20.53125 -2.566406 20.1875 -4.046875 C 18.875 -2.648438 17.53125 -1.460938 16.15625 -0.484375 C 14.789062 0.492188 13.019531 0.984375 10.84375 0.984375 Z M 14.828125 -3 C 15.703125 -3 16.519531 -3.207031 17.28125 -3.625 C 18.039062 -4.039062 18.941406 -4.679688 19.984375 -5.546875 L 19.984375 -16.53125 C 19.554688 -16.4375 19.125 -16.347656 18.6875 -16.265625 C 18.25 -16.179688 17.75 -16.09375 17.1875 -16 C 15.175781 -15.476562 13.570312 -14.597656 12.375 -13.359375 C 11.175781 -12.117188 10.578125 -10.453125 10.578125 -8.359375 C 10.578125 -6.578125 10.988281 -5.238281 11.8125 -4.34375 C 12.644531 -3.445312 13.648438 -3 14.828125 -3 Z M 14.828125 -3 "/></g></g></g></svg>