<svg xmlns="http://www.w3.org/2000/svg" xmlns:xlink="http://www.w3.org/1999/xlink" width="500" zoomAndPan="magnify" viewBox="0 0 375 149.999998" height="200" preserveAspectRatio="xMidYMid meet" version="1.0"><defs><g/><clipPath id="3b375b876a"><path d="M 245.363281 0 L 327.113281 0 L 327.113281 150 L 245.363281 150 Z M 245.363281 0 " clip-rule="nonzero"/></clipPath><clipPath id="9054fa1f08"><path d="M 0 0 L 264.84375 0 L 264.84375 150 L 0 150 Z M 0 0 " clip-rule="nonzero"/></clipPath><clipPath id="eae52c33ca"><path d="M 15 0 L 249.648438 0 C 253.625 0 257.441406 1.582031 260.253906 4.394531 C 263.066406 7.207031 264.648438 11.023438 264.648438 15 L 264.648438 135 C 264.648438 138.976562 263.066406 142.792969 260.253906 145.605469 C 257.441406 148.417969 253.625 150 249.648438 150 L 15 150 C 6.714844 150 0 143.285156 0 135 L 0 15 C 0 6.714844 6.714844 0 15 0 Z M 15 0 " clip-rule="nonzero"/></clipPath><clipPath id="3697b74480"><path d="M 7.082031 7.082031 L 216.144531 7.082031 L 216.144531 142.921875 L 7.082031 142.921875 Z M 7.082031 7.082031 " clip-rule="nonzero"/></clipPath><clipPath id="c7aa69180b"><path d="M 22.082031 7.082031 L 201.066406 7.082031 C 205.042969 7.082031 208.859375 8.660156 211.671875 11.472656 C 214.484375 14.285156 216.066406 18.101562 216.066406 22.082031 L 216.066406 127.917969 C 216.066406 131.898438 214.484375 135.714844 211.671875 138.527344 C 208.859375 141.339844 205.042969 142.917969 201.066406 142.917969 L 22.082031 142.917969 C 13.796875 142.917969 7.082031 136.203125 7.082031 127.917969 L 7.082031 22.082031 C 7.082031 13.796875 13.796875 7.082031 22.082031 7.082031 Z M 22.082031 7.082031 " clip-rule="nonzero"/></clipPath><clipPath id="878bf7464f"><path d="M 226 37 L 300 37 L 300 108.453125 L 226 108.453125 Z M 226 37 " clip-rule="nonzero"/></clipPath></defs><g clip-path="url(#3b375b876a)"><path fill="#011f3f" d="M 327.113281 75 C 327.113281 33.613281 293.5625 0.0625 252.175781 0.0625 C 248.414062 0.0625 245.363281 3.113281 245.363281 6.875 L 245.363281 143.125 C 245.363281 146.886719 248.414062 149.9375 252.175781 149.9375 C 293.5625 149.9375 327.113281 116.386719 327.113281 75 Z M 327.113281 75 " fill-opacity="1" fill-rule="evenodd"/></g><g clip-path="url(#9054fa1f08)"><g clip-path="url(#eae52c33ca)"><path fill="#011f3f" d="M 0 0 L 264.84375 0 L 264.84375 150 L 0 150 Z M 0 0 " fill-opacity="1" fill-rule="nonzero"/></g></g><g clip-path="url(#3697b74480)"><g clip-path="url(#c7aa69180b)"><path fill="#ffe8f0" d="M 7.082031 7.082031 L 216.144531 7.082031 L 216.144531 142.921875 L 7.082031 142.921875 Z M 7.082031 7.082031 " fill-opacity="1" fill-rule="nonzero"/></g></g><path fill="#f8c379" d="M 255.207031 66.109375 L 258.453125 56 C 258.730469 55.136719 258.90625 54.273438 258.976562 53.398438 L 259.140625 53.398438 C 259.238281 54.4375 259.40625 55.332031 259.640625 56.082031 L 262.847656 66.109375 Z M 264.652344 52.105469 C 262.925781 50.339844 260.8125 48.953125 258.453125 48.074219 L 255.25 48.074219 L 244.390625 77.910156 L 251.671875 77.910156 L 253.773438 71.269531 L 264.382812 71.269531 L 265.546875 74.898438 C 267.707031 72.324219 269.117188 69.097656 269.4375 65.558594 L 264.652344 52.105469 " fill-opacity="1" fill-rule="nonzero"/><path fill="#f8c379" d="M 284.289062 67.097656 L 284.289062 70.816406 L 286.007812 70.816406 C 286.746094 70.816406 287.316406 70.644531 287.734375 70.304688 C 288.152344 69.960938 288.355469 69.496094 288.355469 68.90625 C 288.355469 68.34375 288.15625 67.902344 287.742188 67.578125 C 287.332031 67.257812 286.761719 67.097656 286.027344 67.097656 Z M 284.289062 61.394531 L 284.289062 64.738281 L 285.6875 64.738281 C 286.339844 64.738281 286.855469 64.578125 287.234375 64.261719 C 287.609375 63.945312 287.800781 63.507812 287.800781 62.949219 C 287.800781 61.914062 287.027344 61.394531 285.480469 61.394531 Z M 281.113281 73.15625 L 281.113281 59.054688 L 286.242188 59.054688 C 287.816406 59.054688 289.03125 59.34375 289.871094 59.921875 C 290.714844 60.496094 291.144531 61.308594 291.144531 62.359375 C 291.144531 63.121094 290.882812 63.785156 290.371094 64.355469 C 289.855469 64.925781 289.195312 65.320312 288.398438 65.542969 L 288.398438 65.585938 C 289.402344 65.707031 290.203125 66.078125 290.800781 66.695312 C 291.402344 67.3125 291.699219 68.0625 291.699219 68.945312 C 291.699219 70.238281 291.238281 71.261719 290.316406 72.019531 C 289.390625 72.777344 288.128906 73.15625 286.53125 73.15625 L 281.113281 73.15625 " fill-opacity="1" fill-rule="nonzero"/><path fill="#f8c379" d="M 304.972656 72.652344 C 303.945312 73.152344 302.601562 73.402344 300.941406 73.402344 C 298.777344 73.402344 297.078125 72.765625 295.839844 71.492188 C 294.601562 70.222656 293.980469 68.527344 293.980469 66.410156 C 293.980469 64.15625 294.679688 62.328125 296.074219 60.925781 C 297.464844 59.519531 299.269531 58.820312 301.492188 58.820312 C 302.867188 58.820312 304.027344 58.996094 304.972656 59.339844 L 304.972656 62.398438 C 304.027344 61.835938 302.953125 61.554688 301.75 61.554688 C 300.425781 61.554688 299.355469 61.96875 298.542969 62.800781 C 297.730469 63.632812 297.324219 64.761719 297.324219 66.183594 C 297.324219 67.546875 297.707031 68.632812 298.476562 69.441406 C 299.238281 70.253906 300.273438 70.65625 301.574219 70.65625 C 302.8125 70.65625 303.945312 70.355469 304.972656 69.753906 L 304.972656 72.652344 " fill-opacity="1" fill-rule="nonzero"/><g clip-path="url(#878bf7464f)"><path fill="#f8c379" d="M 239.355469 78.242188 C 231.484375 70.96875 231.003906 58.691406 238.28125 50.820312 C 245.554688 42.953125 257.832031 42.46875 265.699219 49.746094 C 273.570312 57.019531 274.050781 69.296875 266.777344 77.167969 C 259.503906 85.035156 247.226562 85.519531 239.355469 78.242188 Z M 299.335938 100.25 C 299.164062 98.199219 298.175781 96.375 296.550781 95.117188 L 275.417969 78.757812 C 274.949219 78.394531 274.820312 77.734375 275.121094 77.21875 C 281.214844 66.839844 279.503906 53.273438 270.300781 44.769531 C 259.683594 34.953125 243.121094 35.601562 233.304688 46.222656 C 223.488281 56.839844 224.136719 73.402344 234.753906 83.222656 C 243.898438 91.671875 257.445312 92.359375 267.304688 85.605469 C 267.789062 85.273438 268.453125 85.351562 268.855469 85.792969 L 286.792969 105.71875 C 288.167969 107.246094 290.058594 108.09375 292.105469 108.101562 L 292.148438 108.101562 C 294.183594 108.101562 296.0625 107.28125 297.441406 105.777344 C 298.695312 104.421875 299.363281 102.699219 299.363281 100.875 C 299.363281 100.667969 299.359375 100.460938 299.335938 100.25 " fill-opacity="1" fill-rule="nonzero"/></g><g fill="#000000" fill-opacity="1"><g transform="translate(21.932587, 88.458155)"><g><path d="M 10.078125 0.765625 C 8.515625 0.765625 6.925781 0.570312 5.3125 0.1875 C 3.695312 -0.1875 2.351562 -0.6875 1.28125 -1.3125 L 1.484375 -7.109375 L 1.90625 -7.109375 L 3.234375 -4.34375 C 3.628906 -3.539062 4.050781 -2.832031 4.5 -2.21875 C 4.957031 -1.613281 5.582031 -1.144531 6.375 -0.8125 C 6.945312 -0.519531 7.492188 -0.320312 8.015625 -0.21875 C 8.535156 -0.125 9.125 -0.078125 9.78125 -0.078125 C 11.507812 -0.078125 12.875 -0.546875 13.875 -1.484375 C 14.882812 -2.421875 15.390625 -3.628906 15.390625 -5.109375 C 15.390625 -6.492188 15.050781 -7.578125 14.375 -8.359375 C 13.695312 -9.140625 12.601562 -9.898438 11.09375 -10.640625 L 9.359375 -11.390625 C 6.921875 -12.472656 5.015625 -13.710938 3.640625 -15.109375 C 2.265625 -16.515625 1.578125 -18.382812 1.578125 -20.71875 C 1.578125 -22.382812 2.007812 -23.828125 2.875 -25.046875 C 3.738281 -26.265625 4.941406 -27.203125 6.484375 -27.859375 C 8.023438 -28.515625 9.832031 -28.84375 11.90625 -28.84375 C 13.40625 -28.84375 14.828125 -28.640625 16.171875 -28.234375 C 17.523438 -27.835938 18.695312 -27.300781 19.6875 -26.625 L 19.4375 -21.515625 L 19.015625 -21.515625 L 17.265625 -24.703125 C 16.785156 -25.703125 16.300781 -26.40625 15.8125 -26.8125 C 15.332031 -27.226562 14.78125 -27.519531 14.15625 -27.6875 C 13.789062 -27.800781 13.453125 -27.878906 13.140625 -27.921875 C 12.828125 -27.960938 12.429688 -27.984375 11.953125 -27.984375 C 10.503906 -27.984375 9.285156 -27.5625 8.296875 -26.71875 C 7.304688 -25.882812 6.8125 -24.757812 6.8125 -23.34375 C 6.8125 -21.90625 7.191406 -20.753906 7.953125 -19.890625 C 8.722656 -19.023438 9.84375 -18.25 11.3125 -17.5625 L 13.265625 -16.71875 C 15.992188 -15.519531 17.953125 -14.25 19.140625 -12.90625 C 20.328125 -11.5625 20.921875 -9.828125 20.921875 -7.703125 C 20.921875 -5.203125 19.976562 -3.164062 18.09375 -1.59375 C 16.207031 -0.0195312 13.535156 0.765625 10.078125 0.765625 Z M 10.078125 0.765625 "/></g></g></g><g fill="#000000" fill-opacity="1"><g transform="translate(44.087581, 88.458155)"><g><path d="M 11.609375 0.640625 C 9.453125 0.640625 7.578125 0.191406 5.984375 -0.703125 C 4.398438 -1.597656 3.175781 -2.863281 2.3125 -4.5 C 1.445312 -6.144531 1.015625 -8.078125 1.015625 -10.296875 C 1.015625 -12.503906 1.472656 -14.414062 2.390625 -16.03125 C 3.316406 -17.644531 4.582031 -18.890625 6.1875 -19.765625 C 7.789062 -20.648438 9.597656 -21.09375 11.609375 -21.09375 C 13.617188 -21.09375 15.414062 -20.660156 17 -19.796875 C 18.59375 -18.929688 19.847656 -17.691406 20.765625 -16.078125 C 21.691406 -14.460938 22.15625 -12.535156 22.15625 -10.296875 C 22.15625 -8.054688 21.722656 -6.117188 20.859375 -4.484375 C 19.992188 -2.859375 18.773438 -1.597656 17.203125 -0.703125 C 15.628906 0.191406 13.765625 0.640625 11.609375 0.640625 Z M 11.609375 -0.21875 C 12.597656 -0.21875 13.390625 -0.5 13.984375 -1.0625 C 14.585938 -1.625 15.019531 -2.628906 15.28125 -4.078125 C 15.550781 -5.523438 15.6875 -7.566406 15.6875 -10.203125 C 15.6875 -12.867188 15.550781 -14.925781 15.28125 -16.375 C 15.019531 -17.820312 14.585938 -18.828125 13.984375 -19.390625 C 13.390625 -19.960938 12.597656 -20.25 11.609375 -20.25 C 10.617188 -20.25 9.816406 -19.960938 9.203125 -19.390625 C 8.597656 -18.828125 8.160156 -17.820312 7.890625 -16.375 C 7.617188 -14.925781 7.484375 -12.867188 7.484375 -10.203125 C 7.484375 -7.566406 7.617188 -5.523438 7.890625 -4.078125 C 8.160156 -2.628906 8.597656 -1.625 9.203125 -1.0625 C 9.816406 -0.5 10.617188 -0.21875 11.609375 -0.21875 Z M 11.609375 -0.21875 "/></g></g></g><g fill="#000000" fill-opacity="1"><g transform="translate(66.837861, 88.458155)"><g><path d="M 0.84375 9.78125 L 0.84375 9.359375 L 1.359375 9.1875 C 2.410156 8.90625 2.9375 8.222656 2.9375 7.140625 L 2.9375 -15.984375 C 2.9375 -16.609375 2.828125 -17.078125 2.609375 -17.390625 C 2.398438 -17.703125 2.015625 -17.914062 1.453125 -18.03125 L 0.84375 -18.15625 L 0.84375 -18.59375 L 8.078125 -21.046875 L 8.5 -20.625 L 8.890625 -19.3125 C 9.828125 -19.875 10.867188 -20.3125 12.015625 -20.625 C 13.160156 -20.9375 14.34375 -21.09375 15.5625 -21.09375 C 18 -21.09375 19.929688 -20.164062 21.359375 -18.3125 C 22.796875 -16.457031 23.515625 -13.796875 23.515625 -10.328125 C 23.515625 -6.929688 22.726562 -4.253906 21.15625 -2.296875 C 19.582031 -0.335938 17.363281 0.640625 14.5 0.640625 C 12.257812 0.640625 10.375 0.3125 8.84375 -0.34375 L 8.84375 7.015625 C 8.84375 8.148438 9.351562 8.859375 10.375 9.140625 L 11.1875 9.359375 L 11.1875 9.78125 Z M 12.46875 -0.59375 C 13.882812 -0.59375 15.007812 -1.328125 15.84375 -2.796875 C 16.675781 -4.273438 17.09375 -6.734375 17.09375 -10.171875 C 17.09375 -13.597656 16.695312 -16 15.90625 -17.375 C 15.113281 -18.75 13.96875 -19.4375 12.46875 -19.4375 C 11.414062 -19.4375 10.25 -19.097656 8.96875 -18.421875 L 8.96875 -1.28125 C 10.050781 -0.820312 11.21875 -0.59375 12.46875 -0.59375 Z M 12.46875 -0.59375 "/></g></g></g><g fill="#000000" fill-opacity="1"><g transform="translate(91.161543, 88.458155)"><g><path d="M 7.0625 0.640625 C 5.414062 0.640625 4.03125 0.171875 2.90625 -0.765625 C 1.789062 -1.703125 1.234375 -3.050781 1.234375 -4.8125 C 1.234375 -6.144531 1.910156 -7.367188 3.265625 -8.484375 C 4.628906 -9.609375 6.773438 -10.453125 9.703125 -11.015625 C 10.148438 -11.097656 10.65625 -11.1875 11.21875 -11.28125 C 11.789062 -11.382812 12.390625 -11.492188 13.015625 -11.609375 L 13.015625 -14.96875 C 13.015625 -16.894531 12.78125 -18.25 12.3125 -19.03125 C 11.84375 -19.8125 11.113281 -20.203125 10.125 -20.203125 C 9.445312 -20.203125 8.90625 -19.984375 8.5 -19.546875 C 8.101562 -19.109375 7.847656 -18.347656 7.734375 -17.265625 L 7.65625 -16.796875 C 7.601562 -15.578125 7.304688 -14.679688 6.765625 -14.109375 C 6.222656 -13.546875 5.554688 -13.265625 4.765625 -13.265625 C 4.023438 -13.265625 3.414062 -13.488281 2.9375 -13.9375 C 2.457031 -14.394531 2.21875 -15.007812 2.21875 -15.78125 C 2.21875 -16.9375 2.617188 -17.910156 3.421875 -18.703125 C 4.234375 -19.503906 5.304688 -20.101562 6.640625 -20.5 C 7.972656 -20.894531 9.414062 -21.09375 10.96875 -21.09375 C 13.5 -21.09375 15.453125 -20.472656 16.828125 -19.234375 C 18.203125 -18.003906 18.890625 -16.003906 18.890625 -13.234375 L 18.890625 -3.828125 C 18.890625 -2.546875 19.484375 -1.90625 20.671875 -1.90625 L 21.609375 -1.90625 L 21.984375 -1.578125 C 21.453125 -0.890625 20.863281 -0.363281 20.21875 0 C 19.582031 0.363281 18.679688 0.546875 17.515625 0.546875 C 16.273438 0.546875 15.289062 0.257812 14.5625 -0.3125 C 13.84375 -0.894531 13.367188 -1.671875 13.140625 -2.640625 C 12.285156 -1.734375 11.410156 -0.957031 10.515625 -0.3125 C 9.628906 0.320312 8.476562 0.640625 7.0625 0.640625 Z M 9.65625 -1.953125 C 10.21875 -1.953125 10.75 -2.085938 11.25 -2.359375 C 11.75 -2.628906 12.335938 -3.046875 13.015625 -3.609375 L 13.015625 -10.765625 C 12.734375 -10.703125 12.445312 -10.640625 12.15625 -10.578125 C 11.875 -10.523438 11.550781 -10.472656 11.1875 -10.421875 C 9.882812 -10.078125 8.84375 -9.5 8.0625 -8.6875 C 7.28125 -7.882812 6.890625 -6.800781 6.890625 -5.4375 C 6.890625 -4.28125 7.15625 -3.410156 7.6875 -2.828125 C 8.226562 -2.242188 8.882812 -1.953125 9.65625 -1.953125 Z M 9.65625 -1.953125 "/></g></g></g><g fill="#000000" fill-opacity="1"><g transform="translate(113.188957, 88.458155)"><g/></g></g><g fill="#000000" fill-opacity="1"><g transform="translate(121.438516, 88.458155)"><g><path d="M 12.078125 0.125 L 2.984375 -25.21875 C 2.773438 -25.789062 2.507812 -26.238281 2.1875 -26.5625 C 1.863281 -26.882812 1.414062 -27.132812 0.84375 -27.3125 L -0.171875 -27.640625 L -0.171875 -28.078125 L 12.078125 -28.078125 L 12.078125 -27.640625 L 10.765625 -27.265625 C 10.109375 -27.085938 9.742188 -26.785156 9.671875 -26.359375 C 9.597656 -25.941406 9.664062 -25.421875 9.875 -24.796875 L 16.15625 -6.125 L 22.5 -24.84375 C 22.726562 -25.488281 22.832031 -26.023438 22.8125 -26.453125 C 22.800781 -26.878906 22.46875 -27.175781 21.8125 -27.34375 L 20.71875 -27.640625 L 20.71875 -28.078125 L 26.671875 -28.078125 L 26.671875 -27.640625 L 25.515625 -27.3125 C 24.972656 -27.164062 24.585938 -26.914062 24.359375 -26.5625 C 24.140625 -26.207031 23.929688 -25.742188 23.734375 -25.171875 L 15.21875 0.125 Z M 12.078125 0.125 "/></g></g></g><g fill="#000000" fill-opacity="1"><g transform="translate(146.78266, 88.458155)"><g><path d="M 5.953125 -23.3125 C 4.992188 -23.3125 4.179688 -23.613281 3.515625 -24.21875 C 2.847656 -24.832031 2.515625 -25.609375 2.515625 -26.546875 C 2.515625 -27.503906 2.847656 -28.28125 3.515625 -28.875 C 4.179688 -29.46875 4.992188 -29.765625 5.953125 -29.765625 C 6.921875 -29.765625 7.726562 -29.46875 8.375 -28.875 C 9.03125 -28.28125 9.359375 -27.503906 9.359375 -26.546875 C 9.359375 -25.609375 9.03125 -24.832031 8.375 -24.21875 C 7.726562 -23.613281 6.921875 -23.3125 5.953125 -23.3125 Z M 0.9375 0 L 0.9375 -0.421875 L 1.53125 -0.59375 C 2.09375 -0.757812 2.476562 -1.015625 2.6875 -1.359375 C 2.90625 -1.703125 3.015625 -2.15625 3.015625 -2.71875 L 3.015625 -16.03125 C 3.015625 -16.625 2.90625 -17.070312 2.6875 -17.375 C 2.476562 -17.675781 2.09375 -17.878906 1.53125 -17.984375 L 0.9375 -18.125 L 0.9375 -18.546875 L 8.71875 -21.046875 L 9.140625 -20.625 L 9.015625 -14.59375 L 9.015625 -2.671875 C 9.015625 -2.109375 9.117188 -1.65625 9.328125 -1.3125 C 9.546875 -0.976562 9.925781 -0.722656 10.46875 -0.546875 L 10.890625 -0.421875 L 10.890625 0 Z M 0.9375 0 "/></g></g></g><g fill="#000000" fill-opacity="1"><g transform="translate(158.306614, 88.458155)"><g><path d="M 10.375 0.125 L 2.84375 -17.953125 C 2.445312 -18.910156 1.769531 -19.546875 0.8125 -19.859375 L 0.21875 -20.03125 L 0.21875 -20.453125 L 11.234375 -20.453125 L 11.234375 -20.03125 L 10.46875 -19.859375 C 9.351562 -19.578125 9.007812 -18.84375 9.4375 -17.65625 L 13.90625 -5.78125 L 18.078125 -17.5625 C 18.304688 -18.132812 18.363281 -18.601562 18.25 -18.96875 C 18.132812 -19.332031 17.789062 -19.601562 17.21875 -19.78125 L 16.15625 -20.03125 L 16.15625 -20.453125 L 22.328125 -20.453125 L 22.328125 -20.03125 L 21.09375 -19.734375 C 20.550781 -19.585938 20.128906 -19.375 19.828125 -19.09375 C 19.535156 -18.8125 19.289062 -18.390625 19.09375 -17.828125 L 12.84375 0.125 Z M 10.375 0.125 "/></g></g></g><g fill="#000000" fill-opacity="1"><g transform="translate(179.86617, 88.458155)"><g><path d="M 7.0625 0.640625 C 5.414062 0.640625 4.03125 0.171875 2.90625 -0.765625 C 1.789062 -1.703125 1.234375 -3.050781 1.234375 -4.8125 C 1.234375 -6.144531 1.910156 -7.367188 3.265625 -8.484375 C 4.628906 -9.609375 6.773438 -10.453125 9.703125 -11.015625 C 10.148438 -11.097656 10.65625 -11.1875 11.21875 -11.28125 C 11.789062 -11.382812 12.390625 -11.492188 13.015625 -11.609375 L 13.015625 -14.96875 C 13.015625 -16.894531 12.78125 -18.25 12.3125 -19.03125 C 11.84375 -19.8125 11.113281 -20.203125 10.125 -20.203125 C 9.445312 -20.203125 8.90625 -19.984375 8.5 -19.546875 C 8.101562 -19.109375 7.847656 -18.347656 7.734375 -17.265625 L 7.65625 -16.796875 C 7.601562 -15.578125 7.304688 -14.679688 6.765625 -14.109375 C 6.222656 -13.546875 5.554688 -13.265625 4.765625 -13.265625 C 4.023438 -13.265625 3.414062 -13.488281 2.9375 -13.9375 C 2.457031 -14.394531 2.21875 -15.007812 2.21875 -15.78125 C 2.21875 -16.9375 2.617188 -17.910156 3.421875 -18.703125 C 4.234375 -19.503906 5.304688 -20.101562 6.640625 -20.5 C 7.972656 -20.894531 9.414062 -21.09375 10.96875 -21.09375 C 13.5 -21.09375 15.453125 -20.472656 16.828125 -19.234375 C 18.203125 -18.003906 18.890625 -16.003906 18.890625 -13.234375 L 18.890625 -3.828125 C 18.890625 -2.546875 19.484375 -1.90625 20.671875 -1.90625 L 21.609375 -1.90625 L 21.984375 -1.578125 C 21.453125 -0.890625 20.863281 -0.363281 20.21875 0 C 19.582031 0.363281 18.679688 0.546875 17.515625 0.546875 C 16.273438 0.546875 15.289062 0.257812 14.5625 -0.3125 C 13.84375 -0.894531 13.367188 -1.671875 13.140625 -2.640625 C 12.285156 -1.734375 11.410156 -0.957031 10.515625 -0.3125 C 9.628906 0.320312 8.476562 0.640625 7.0625 0.640625 Z M 9.65625 -1.953125 C 10.21875 -1.953125 10.75 -2.085938 11.25 -2.359375 C 11.75 -2.628906 12.335938 -3.046875 13.015625 -3.609375 L 13.015625 -10.765625 C 12.734375 -10.703125 12.445312 -10.640625 12.15625 -10.578125 C 11.875 -10.523438 11.550781 -10.472656 11.1875 -10.421875 C 9.882812 -10.078125 8.84375 -9.5 8.0625 -8.6875 C 7.28125 -7.882812 6.890625 -6.800781 6.890625 -5.4375 C 6.890625 -4.28125 7.15625 -3.410156 7.6875 -2.828125 C 8.226562 -2.242188 8.882812 -1.953125 9.65625 -1.953125 Z M 9.65625 -1.953125 "/></g></g></g></svg>