<svg xmlns="http://www.w3.org/2000/svg"  viewBox="0 0 32 32" width="32px" height="32px" baseProfile="basic"><path d="M16,3C8.832,3,3,8.832,3,16s5.832,13,13,13s13-5.832,13-13S23.168,3,16,3z M13.764,26.405 c-0.178-1.708-0.25-3.662-0.157-5.179c-0.92,0-1.796-0.114-2.518-0.382c-0.154-0.057-0.28-0.184-0.349-0.333 c-0.514-1.121-0.515-1.903,0-3.023c0.068-0.149,0.204-0.277,0.358-0.334c0.902-0.334,1.697-0.405,2.522-0.405l0.041-0.928 c0.188-3.382,2.607-5.744,6.314-5.822c0.23-0.005,0.457,0.125,0.554,0.334c0.481,1.039,0.51,2.249,0.011,3.318 C20.44,13.862,20.22,14,19.989,14c-1.104,0-2.005,0.904-2.002,2.008l0.002,0.73c1.308,0.01,2.039,0.114,3.071,0.38 c0.252,0.065,0.448,0.334,0.449,0.594c0.006,1.059-0.328,2.246-0.971,2.931c-0.085,0.054-0.168,0.106-0.254,0.16 c-0.636,0.221-1.217,0.289-2.216,0.289c0.082,1.396-0.014,3.494-0.185,5.352c-0.021,0.23-0.197,0.417-0.425,0.449 C16.981,26.96,16.495,27,16,27c-0.621,0-1.23-0.052-1.823-0.152C13.956,26.811,13.787,26.629,13.764,26.405z"/></svg>