<svg xmlns="http://www.w3.org/2000/svg" xmlns:xlink="http://www.w3.org/1999/xlink" zoomAndPan="magnify" preserveAspectRatio="xMidYMid meet" version="1.0" viewBox="572.39 375.62 294.43 58.83"><defs><clipPath id="e391d1f1be"><path d="M 572.390625 395.449219 L 738.738281 395.449219 L 738.738281 434.449219 L 572.390625 434.449219 Z M 572.390625 395.449219 " clip-rule="nonzero"/></clipPath><clipPath id="18c80a48f7"><path d="M 700.324219 395.449219 L 866.824219 395.449219 L 866.824219 434.449219 L 700.324219 434.449219 Z M 700.324219 395.449219 " clip-rule="nonzero"/></clipPath><clipPath id="f753d249f4"><path d="M 700.324219 376.074219 L 866.824219 376.074219 L 866.824219 415 L 700.324219 415 Z M 700.324219 376.074219 " clip-rule="nonzero"/></clipPath><clipPath id="babfc659f4"><path d="M 572.390625 375.617188 L 738.738281 375.617188 L 738.738281 414.617188 L 572.390625 414.617188 Z M 572.390625 375.617188 " clip-rule="nonzero"/></clipPath></defs><g clip-path="url(#e391d1f1be)"><path fill="#ffeacf" d="M 578.203125 397.386719 C 590.335938 401.4375 598.964844 403.917969 608.503906 406.066406 C 619.519531 408.554688 627.351562 409.578125 636.570312 409.730469 C 646.527344 409.882812 654.335938 409.074219 666.457031 406.59375 C 671.34375 405.597656 677.015625 404.316406 689.074219 401.484375 C 701.042969 398.679688 708.441406 397.1875 713.019531 396.683594 C 721.160156 395.765625 729.425781 396.496094 737.175781 398.808594 L 738.621094 399.230469 L 738.644531 416.707031 L 738.679688 434.191406 L 572.449219 434.191406 L 572.449219 414.816406 C 572.449219 404.152344 572.460938 395.449219 572.472656 395.460938 C 572.496094 395.472656 575.066406 396.34375 578.203125 397.386719 Z M 578.203125 397.386719 " fill-opacity="1" fill-rule="nonzero"/></g><g clip-path="url(#18c80a48f7)"><path fill="#ffeacf" d="M 861.011719 397.386719 C 848.882812 401.4375 840.25 403.917969 830.714844 406.066406 C 819.699219 408.554688 811.867188 409.578125 802.648438 409.730469 C 792.6875 409.882812 784.878906 409.074219 772.757812 406.59375 C 767.875 405.597656 762.203125 404.316406 750.140625 401.484375 C 738.175781 398.679688 730.777344 397.1875 726.195312 396.683594 C 718.058594 395.765625 709.789062 396.496094 702.039062 398.808594 L 700.59375 399.230469 L 700.570312 416.707031 L 700.535156 434.191406 L 866.765625 434.191406 L 866.765625 414.816406 C 866.765625 404.152344 866.753906 395.449219 866.742188 395.460938 C 866.71875 395.472656 864.148438 396.34375 861.011719 397.386719 Z M 861.011719 397.386719 " fill-opacity="1" fill-rule="nonzero"/></g><g clip-path="url(#f753d249f4)"><path fill="#ffeacf" d="M 861.011719 378.011719 C 848.882812 382.066406 840.25 384.542969 830.714844 386.691406 C 819.699219 389.179688 811.867188 390.203125 802.648438 390.355469 C 792.6875 390.507812 784.878906 389.699219 772.757812 387.21875 C 767.875 386.222656 762.203125 384.941406 750.140625 382.113281 C 738.175781 379.304688 730.777344 377.8125 726.195312 377.308594 C 718.058594 376.390625 709.789062 377.121094 702.039062 379.433594 L 700.59375 379.855469 L 700.570312 397.332031 L 700.535156 414.816406 L 866.765625 414.816406 L 866.765625 395.441406 C 866.765625 384.777344 866.753906 376.074219 866.742188 376.085938 C 866.71875 376.097656 864.148438 376.96875 861.011719 378.011719 Z M 861.011719 378.011719 " fill-opacity="1" fill-rule="nonzero"/></g><g clip-path="url(#babfc659f4)"><path fill="#ffeacf" d="M 578.203125 377.554688 C 590.335938 381.605469 598.964844 384.082031 608.503906 386.234375 C 619.519531 388.722656 627.351562 389.746094 636.570312 389.898438 C 646.527344 390.050781 654.335938 389.238281 666.457031 386.761719 C 671.34375 385.761719 677.015625 384.484375 689.074219 381.652344 C 701.042969 378.847656 708.441406 377.355469 713.019531 376.851562 C 721.160156 375.933594 729.425781 376.660156 737.175781 378.976562 L 738.621094 379.398438 L 738.644531 396.871094 L 738.679688 414.359375 L 572.449219 414.359375 L 572.449219 394.980469 C 572.449219 384.320312 572.460938 375.617188 572.472656 375.628906 C 572.496094 375.640625 575.066406 376.507812 578.203125 377.554688 Z M 578.203125 377.554688 " fill-opacity="1" fill-rule="nonzero"/></g></svg>